<svg xmlns="http://www.w3.org/2000/svg" xmlns:xlink="http://www.w3.org/1999/xlink" version="1.1" width="256" height="256" viewBox="0 0 256 256" xml:space="preserve">

<defs>
</defs>
<g style="stroke: none; stroke-width: 0; stroke-dasharray: none; stroke-linecap: butt; stroke-linejoin: miter; stroke-miterlimit: 10; fill: none; fill-rule: nonzero; opacity: 1;" transform="translate(1.4065934065934016 1.4065934065934016) scale(2.81 2.81)" >
	<path d="M 50.91 60.162 H 20.037 c -0.552 0 -1 -0.447 -1 -1 s 0.448 -1 1 -1 H 50.91 c 0.553 0 1 0.447 1 1 S 51.463 60.162 50.91 60.162 z" style="stroke: none; stroke-width: 1; stroke-dasharray: none; stroke-linecap: butt; stroke-linejoin: miter; stroke-miterlimit: 10; fill: rgb(255,255,255); fill-rule: nonzero; opacity: 1;" transform=" matrix(1 0 0 1 0 0) " stroke-linecap="round" />
	<path d="M 37.869 67.512 H 20.037 c -0.552 0 -1 -0.447 -1 -1 s 0.448 -1 1 -1 h 17.833 c 0.552 0 1 0.447 1 1 S 38.421 67.512 37.869 67.512 z" style="stroke: none; stroke-width: 1; stroke-dasharray: none; stroke-linecap: butt; stroke-linejoin: miter; stroke-miterlimit: 10; fill: rgb(255,255,255); fill-rule: nonzero; opacity: 1;" transform=" matrix(1 0 0 1 0 0) " stroke-linecap="round" />
	<path d="M 50.91 67.512 h -8.383 c -0.552 0 -1 -0.447 -1 -1 s 0.448 -1 1 -1 h 8.383 c 0.553 0 1 0.447 1 1 S 51.463 67.512 50.91 67.512 z" style="stroke: none; stroke-width: 1; stroke-dasharray: none; stroke-linecap: butt; stroke-linejoin: miter; stroke-miterlimit: 10; fill: rgb(255,255,255); fill-rule: nonzero; opacity: 1;" transform=" matrix(1 0 0 1 0 0) " stroke-linecap="round" />
	<path d="M 80.35 67.512 H 65.18 c -0.553 0 -1 -0.447 -1 -1 v -7.35 c 0 -0.553 0.447 -1 1 -1 h 15.17 c 0.553 0 1 0.447 1 1 v 7.35 C 81.35 67.064 80.902 67.512 80.35 67.512 z M 66.18 65.512 h 13.17 v -5.35 H 66.18 V 65.512 z" style="stroke: none; stroke-width: 1; stroke-dasharray: none; stroke-linecap: butt; stroke-linejoin: miter; stroke-miterlimit: 10; fill: rgb(255,255,255); fill-rule: nonzero; opacity: 1;" transform=" matrix(1 0 0 1 0 0) " stroke-linecap="round" />
	<path d="M 87.099 25.203 H 81.27 l -0.798 -8.916 c -0.147 -1.645 -1.611 -2.859 -3.251 -2.717 L 2.729 20.242 c -0.797 0.072 -1.519 0.449 -2.032 1.063 s -0.756 1.392 -0.685 2.188 l 4.036 45.065 c 0.139 1.555 1.45 2.729 2.983 2.729 c 0.089 0 0.178 -0.004 0.268 -0.012 l 1.918 -0.172 v 2.436 c 0 1.6 1.302 2.901 2.901 2.901 h 74.979 c 1.6 0 2.901 -1.302 2.901 -2.901 V 50.625 V 34.652 v -6.547 C 90 26.505 88.698 25.203 87.099 25.203 z M 7.122 69.284 c -0.557 0.055 -1.033 -0.357 -1.082 -0.903 L 2.004 23.315 c -0.049 -0.547 0.356 -1.032 0.903 -1.081 l 74.491 -6.671 c 0.539 -0.052 1.033 0.355 1.081 0.903 l 0.782 8.737 H 12.12 c -1.6 0 -2.901 1.302 -2.901 2.901 v 6.547 v 15.973 v 18.471 L 7.122 69.284 z M 11.218 36.652 H 88 v 11.973 H 11.218 V 36.652 z M 88 73.54 c 0 0.497 -0.404 0.901 -0.901 0.901 H 12.12 c -0.497 0 -0.901 -0.404 -0.901 -0.901 V 50.625 H 88 V 73.54 z M 11.218 34.652 v -6.547 c 0 -0.497 0.404 -0.901 0.901 -0.901 h 74.979 c 0.497 0 0.901 0.404 0.901 0.901 v 6.547 H 11.218 z" style="stroke: none; stroke-width: 1; stroke-dasharray: none; stroke-linecap: butt; stroke-linejoin: miter; stroke-miterlimit: 10; fill: rgb(255,255,255); fill-rule: nonzero; opacity: 1;" transform=" matrix(1 0 0 1 0 0) " stroke-linecap="round" />
</g>
</svg>