<svg xmlns="http://www.w3.org/2000/svg" xmlns:xlink="http://www.w3.org/1999/xlink" version="1.1" width="256" height="256" viewBox="0 0 256 256" xml:space="preserve">

<defs>
</defs>
<g style="stroke: none; stroke-width: 0; stroke-dasharray: none; stroke-linecap: butt; stroke-linejoin: miter; stroke-miterlimit: 10; fill: none; fill-rule: nonzero; opacity: 1;" transform="translate(1.4065934065934016 1.4065934065934016) scale(2.81 2.81)" >
	<path d="M 84.27 37.71 L 49.289 13.302 c 0.151 -0.452 0.253 -0.928 0.253 -1.43 c 0 -2.505 -2.037 -4.542 -4.542 -4.542 s -4.542 2.038 -4.542 4.542 c 0 0.501 0.101 0.974 0.251 1.425 L 5.731 37.71 C 2.537 37.918 0 40.575 0 43.821 v 32.718 c 0 3.381 2.751 6.132 6.132 6.132 h 77.736 c 3.381 0 6.132 -2.751 6.132 -6.132 V 43.821 C 90 40.576 87.463 37.918 84.27 37.71 z M 45 9.329 c 1.401 0 2.542 1.141 2.542 2.542 S 46.401 14.414 45 14.414 c -1.402 0 -2.542 -1.141 -2.542 -2.542 S 43.598 9.329 45 9.329 z M 45 16.414 c 1.28 0 2.433 -0.537 3.259 -1.391 l 32.485 22.667 H 9.254 l 32.482 -22.672 C 42.563 15.875 43.717 16.414 45 16.414 z M 88 76.539 c 0 2.278 -1.854 4.132 -4.132 4.132 H 6.132 C 3.854 80.671 2 78.817 2 76.539 V 43.821 c 0 -2.278 1.854 -4.132 4.132 -4.132 h 77.736 c 2.278 0 4.132 1.854 4.132 4.132 V 76.539 z" style="stroke: none; stroke-width: 1; stroke-dasharray: none; stroke-linecap: butt; stroke-linejoin: miter; stroke-miterlimit: 10; fill: rgb(255,255,255); fill-rule: nonzero; opacity: 1;" transform=" matrix(1 0 0 1 0 0) " stroke-linecap="round" />
	<path d="M 52.471 73.658 c -3.552 0 -6.441 -2.89 -6.441 -6.441 s 2.89 -6.441 6.441 -6.441 c 3.551 0 6.44 2.89 6.44 6.441 S 56.021 73.658 52.471 73.658 z M 52.471 62.775 c -2.449 0 -4.441 1.992 -4.441 4.441 s 1.992 4.441 4.441 4.441 c 2.448 0 4.44 -1.992 4.44 -4.441 S 54.919 62.775 52.471 62.775 z" style="stroke: none; stroke-width: 1; stroke-dasharray: none; stroke-linecap: butt; stroke-linejoin: miter; stroke-miterlimit: 10; fill: rgb(255,255,255); fill-rule: nonzero; opacity: 1;" transform=" matrix(1 0 0 1 0 0) " stroke-linecap="round" />
	<path d="M 37.53 58.718 c -3.552 0 -6.441 -2.89 -6.441 -6.441 s 2.89 -6.441 6.441 -6.441 s 6.441 2.89 6.441 6.441 S 41.082 58.718 37.53 58.718 z M 37.53 47.835 c -2.449 0 -4.441 1.992 -4.441 4.441 s 1.992 4.441 4.441 4.441 s 4.441 -1.992 4.441 -4.441 S 39.979 47.835 37.53 47.835 z" style="stroke: none; stroke-width: 1; stroke-dasharray: none; stroke-linecap: butt; stroke-linejoin: miter; stroke-miterlimit: 10; fill: rgb(255,255,255); fill-rule: nonzero; opacity: 1;" transform=" matrix(1 0 0 1 0 0) " stroke-linecap="round" />
	<path d="M 32.088 73.658 c -0.256 0 -0.512 -0.098 -0.707 -0.293 c -0.391 -0.391 -0.391 -1.023 0 -1.414 l 25.823 -25.823 c 0.391 -0.391 1.023 -0.391 1.414 0 s 0.391 1.023 0 1.414 L 32.795 73.365 C 32.6 73.561 32.344 73.658 32.088 73.658 z" style="stroke: none; stroke-width: 1; stroke-dasharray: none; stroke-linecap: butt; stroke-linejoin: miter; stroke-miterlimit: 10; fill: rgb(255,255,255); fill-rule: nonzero; opacity: 1;" transform=" matrix(1 0 0 1 0 0) " stroke-linecap="round" />
</g>
</svg>