<svg xmlns="http://www.w3.org/2000/svg" xmlns:xlink="http://www.w3.org/1999/xlink" version="1.1" width="256" height="256" viewBox="0 0 256 256" xml:space="preserve">

<defs>
</defs>
<g style="stroke: none; stroke-width: 0; stroke-dasharray: none; stroke-linecap: butt; stroke-linejoin: miter; stroke-miterlimit: 10; fill: none; fill-rule: nonzero; opacity: 1;" transform="translate(1.4065934065934016 1.4065934065934016) scale(2.81 2.81)" >
	<path d="M 2 88.02 c -1.104 0 -2 -0.896 -2 -2 V 3.981 c 0 -1.104 0.896 -2 2 -2 s 2 0.896 2 2 V 86.02 C 4 87.124 3.104 88.02 2 88.02 z" style="stroke: none; stroke-width: 1; stroke-dasharray: none; stroke-linecap: butt; stroke-linejoin: miter; stroke-miterlimit: 10; fill: rgb(255,255,255); fill-rule: nonzero; opacity: 1;" transform=" matrix(1 0 0 1 0 0) " stroke-linecap="round" />
	<path d="M 88 88.02 H 2 c -1.104 0 -2 -0.896 -2 -2 s 0.896 -2 2 -2 h 86 c 1.104 0 2 0.896 2 2 S 89.104 88.02 88 88.02 z" style="stroke: none; stroke-width: 1; stroke-dasharray: none; stroke-linecap: butt; stroke-linejoin: miter; stroke-miterlimit: 10; fill: rgb(255,255,255); fill-rule: nonzero; opacity: 1;" transform=" matrix(1 0 0 1 0 0) " stroke-linecap="round" />
	<path d="M 29.017 88.02 H 17.402 c -1.104 0 -2 -0.896 -2 -2 V 70.564 h -2.954 c -0.778 0 -1.486 -0.451 -1.814 -1.157 c -0.328 -0.706 -0.216 -1.538 0.286 -2.133 l 10.762 -12.746 c 0.761 -0.9 2.296 -0.9 3.057 0 l 10.761 12.746 c 0.502 0.595 0.613 1.427 0.286 2.133 c -0.328 0.706 -1.036 1.157 -1.814 1.157 h -2.954 V 86.02 C 31.017 87.124 30.121 88.02 29.017 88.02 z" style="stroke: none; stroke-width: 1; stroke-dasharray: none; stroke-linecap: butt; stroke-linejoin: miter; stroke-miterlimit: 10; fill: rgb(255,255,255); fill-rule: nonzero; opacity: 1;" transform=" matrix(1 0 0 1 0 0) " stroke-linecap="round" />
	<path d="M 54.817 88.02 H 43.202 c -1.104 0 -2 -0.896 -2 -2 V 48.337 h -2.954 c -0.778 0 -1.486 -0.451 -1.814 -1.157 c -0.328 -0.706 -0.216 -1.538 0.286 -2.133 l 10.762 -12.746 c 0.38 -0.45 0.939 -0.71 1.528 -0.71 l 0 0 c 0.589 0 1.148 0.26 1.528 0.71 l 10.761 12.746 c 0.502 0.595 0.613 1.427 0.285 2.133 c -0.327 0.706 -1.035 1.157 -1.813 1.157 h -2.953 V 86.02 C 56.817 87.124 55.922 88.02 54.817 88.02 z" style="stroke: none; stroke-width: 1; stroke-dasharray: none; stroke-linecap: butt; stroke-linejoin: miter; stroke-miterlimit: 10; fill: rgb(255,255,255); fill-rule: nonzero; opacity: 1;" transform=" matrix(1 0 0 1 0 0) " stroke-linecap="round" />
	<path d="M 80.617 88.02 H 69.002 c -1.104 0 -2 -0.896 -2 -2 v -59.91 h -2.953 c -0.778 0 -1.486 -0.452 -1.813 -1.158 c -0.328 -0.706 -0.217 -1.538 0.285 -2.132 l 10.761 -12.746 c 0.76 -0.9 2.297 -0.9 3.057 0 L 87.1 22.819 c 0.502 0.595 0.613 1.427 0.285 2.132 c -0.327 0.706 -1.035 1.158 -1.813 1.158 h -2.954 v 59.91 C 82.617 87.124 81.722 88.02 80.617 88.02 z" style="stroke: none; stroke-width: 1; stroke-dasharray: none; stroke-linecap: butt; stroke-linejoin: miter; stroke-miterlimit: 10; fill: rgb(255,255,255); fill-rule: nonzero; opacity: 1;" transform=" matrix(1 0 0 1 0 0) " stroke-linecap="round" />
	<path d="M 38.248 23.711 h -25.8 c -1.104 0 -2 -0.896 -2 -2 V 11.036 c 0 -1.104 0.896 -2 2 -2 h 25.8 c 1.104 0 2 0.896 2 2 v 10.675 C 40.248 22.815 39.353 23.711 38.248 23.711 z" style="stroke: none; stroke-width: 1; stroke-dasharray: none; stroke-linecap: butt; stroke-linejoin: miter; stroke-miterlimit: 10; fill: rgb(255,255,255); fill-rule: nonzero; opacity: 1;" transform=" matrix(1 0 0 1 0 0) " stroke-linecap="round" />
	<path d="M 38.248 32.768 h -25.8 c -1.104 0 -2 -0.896 -2 -2 s 0.896 -2 2 -2 h 25.8 c 1.104 0 2 0.896 2 2 S 39.353 32.768 38.248 32.768 z" style="stroke: none; stroke-width: 1; stroke-dasharray: none; stroke-linecap: butt; stroke-linejoin: miter; stroke-miterlimit: 10; fill: rgb(255,255,255); fill-rule: nonzero; opacity: 1;" transform=" matrix(1 0 0 1 0 0) " stroke-linecap="round" />
	<path d="M 24.713 42.476 H 12.448 c -1.104 0 -2 -0.896 -2 -2 s 0.896 -2 2 -2 h 12.266 c 1.104 0 2 0.896 2 2 S 25.818 42.476 24.713 42.476 z" style="stroke: none; stroke-width: 1; stroke-dasharray: none; stroke-linecap: butt; stroke-linejoin: miter; stroke-miterlimit: 10; fill: rgb(255,255,255); fill-rule: nonzero; opacity: 1;" transform=" matrix(1 0 0 1 0 0) " stroke-linecap="round" />
</g>
</svg>